{
  "accessors": [
    {
      "bufferView": 2,
      "componentType": 5126,
      "count": 113,
      "max": [
        0.14251968264579773,
        3.302325487136841,
        0.12575487792491913
      ],
      "min": [
        -0.14251968264579773,
        -3.30232572555542,
        -0.12575575709342957
      ],
      "type": "VEC3"
    },
    {
      "bufferView": 2,
      "byteOffset": 1356,
      "componentType": 5126,
      "count": 113,
      "max": [
        0.9659258723258972,
        1.0,
        0.9780020713806152
      ],
      "min": [
        -0.9659258723258972,
        -1.0,
        -0.9706717133522034
      ],
      "type": "VEC3"
    },
    {
      "bufferView": 3,
      "componentType": 5126,
      "count": 113,
      "max": [
        0.9821039438247681,
        0.7094346880912781,
        1.0,
        1.0
      ],
      "min": [
        -0.9744359850883484,
        -0.7094354629516602,
        -0.9668177962303162,
        1.0
      ],
      "type": "VEC4"
    },
    {
      "bufferView": 1,
      "componentType": 5126,
      "count": 113,
      "max": [
        0.19046173989772797,
        0.995544970035553
      ],
      "min": [
        0.005517656449228525,
        0.0024990998208522797
      ],
      "type": "VEC2"
    },
    {
      "bufferView": 1,
      "byteOffset": 904,
      "componentType": 5126,
      "count": 113,
      "max": [
        0.19046173989772797,
        0.995544970035553
      ],
      "min": [
        0.005517656449228525,
        0.0024990998208522797
      ],
      "type": "VEC2"
    },
    {
      "bufferView": 1,
      "byteOffset": 1808,
      "componentType": 5126,
      "count": 113,
      "max": [
        0.19046173989772797,
        0.995544970035553
      ],
      "min": [
        0.005517656449228525,
        0.0024990998208522797
      ],
      "type": "VEC2"
    },
    {
      "bufferView": 0,
      "componentType": 5125,
      "count": 372,
      "type": "SCALAR"
    }
  ],
  "asset": {
    "extras": {
      "author": "plaggy (https://sketchfab.com/plaggy)",
      "license": "CC-BY-4.0 (http://creativecommons.org/licenses/by/4.0/)",
      "source": "https://sketchfab.com/3d-models/cc0-pencil-cb1b27db90eb469eb845017bb300b5d3",
      "title": "CC0 - Pencil"
    },
    "generator": "Sketchfab-15.25.0",
    "version": "2.0"
  },
  "bufferViews": [
    {
      "buffer": 0,
      "byteLength": 1488,
      "name": "floatBufferViews",
      "target": 34963
    },
    {
      "buffer": 0,
      "byteLength": 2712,
      "byteOffset": 1488,
      "byteStride": 8,
      "name": "floatBufferViews",
      "target": 34962
    },
    {
      "buffer": 0,
      "byteLength": 2712,
      "byteOffset": 4200,
      "byteStride": 12,
      "name": "floatBufferViews",
      "target": 34962
    },
    {
      "buffer": 0,
      "byteLength": 1808,
      "byteOffset": 6912,
      "byteStride": 16,
      "name": "floatBufferViews",
      "target": 34962
    }
  ],
  "buffers": [
    {
      "byteLength": 8720,
      "uri": "scene.bin"
    }
  ],
  "images": [
    {
      "uri": "textures_pencil/Pencil_baseColor.png"
    },
    {
      "uri": "textures_pencil/Pencil_metallicRoughness.png"
    },
    {
      "uri": "textures_pencil/Pencil_normal.png"
    }
  ],
  "materials": [
    {
      "name": "Pencil",
      "normalTexture": {
        "index": 2
      },
      "pbrMetallicRoughness": {
        "baseColorTexture": {
          "index": 0
        },
        "metallicRoughnessTexture": {
          "index": 1
        }
      }
    }
  ],
  "meshes": [
    {
      "name": "Pencil_Pencil_0",
      "primitives": [
        {
          "attributes": {
            "NORMAL": 1,
            "POSITION": 0,
            "TANGENT": 2,
            "TEXCOORD_0": 3,
            "TEXCOORD_1": 4,
            "TEXCOORD_2": 5
          },
          "indices": 6,
          "material": 0,
          "mode": 4
        }
      ]
    }
  ],
  "nodes": [
    {
      "children": [
        1
      ],
      "matrix": [
        1.0,
        0.0,
        0.0,
        0.0,
        0.0,
        2.220446049250313e-16,
        -1.0,
        0.0,
        0.0,
        1.0,
        2.220446049250313e-16,
        0.0,
        0.0,
        0.0,
        0.0,
        1.0
      ],
      "name": "Sketchfab_model"
    },
    {
      "children": [
        2
      ],
      "matrix": [
        0.02539999969303608,
        0.0,
        0.0,
        0.0,
        0.0,
        0.0,
        0.02539999969303608,
        0.0,
        0.0,
        -0.02539999969303608,
        0.0,
        0.0,
        0.0,
        0.0,
        0.0,
        1.0
      ],
      "name": "b33c0fbf26a8438180b668665e7a2028.fbx"
    },
    {
      "children": [
        3
      ],
      "name": "RootNode"
    },
    {
      "children": [
        4
      ],
      "matrix": [
        -0.33921030739199676,
        0.7919358149404035,
        0.5077145185768337,
        0.0,
        0.5692986893358049,
        0.6024775894576235,
        -0.5593923100310425,
        0.0,
        -0.7488894242006372,
        0.09928957254420154,
        -0.6552146298003638,
        0.0,
        0.0,
        0.0,
        0.0,
        1.0
      ],
      "name": "Pencil"
    },
    {
      "mesh": 0,
      "name": "Pencil_Pencil_0"
    }
  ],
  "samplers": [
    {
      "magFilter": 9729,
      "minFilter": 9987,
      "wrapS": 10497,
      "wrapT": 10497
    }
  ],
  "scene": 0,
  "scenes": [
    {
      "name": "Sketchfab_Scene",
      "nodes": [
        0
      ]
    }
  ],
  "textures": [
    {
      "sampler": 0,
      "source": 0
    },
    {
      "sampler": 0,
      "source": 1
    },
    {
      "sampler": 0,
      "source": 2
    }
  ]
}
